<svg width="10" height="3" viewBox="0 0 10 3" fill="none" xmlns="http://www.w3.org/2000/svg">
<path d="M1.67577 2.07C1.42377 2.07 1.2091 1.986 1.03177 1.818C0.863766 1.65 0.779766 1.43533 0.779766 1.174C0.779766 0.912667 0.863766 0.698 1.03177 0.53C1.2091 0.352667 1.42377 0.264 1.67577 0.264C1.92777 0.264 2.13777 0.352667 2.30577 0.53C2.47377 0.698 2.55777 0.912667 2.55777 1.174C2.55777 1.43533 2.47377 1.65 2.30577 1.818C2.13777 1.986 1.92777 2.07 1.67577 2.07ZM5.00777 2.07C4.74643 2.07 4.53177 1.986 4.36377 1.818C4.19577 1.65 4.11177 1.43533 4.11177 1.174C4.11177 0.912667 4.19577 0.698 4.36377 0.53C4.53177 0.352667 4.74643 0.264 5.00777 0.264C5.25977 0.264 5.46977 0.352667 5.63777 0.53C5.80577 0.698 5.88977 0.912667 5.88977 1.174C5.88977 1.43533 5.80577 1.65 5.63777 1.818C5.46977 1.986 5.25977 2.07 5.00777 2.07ZM8.33977 2.07C8.07843 2.07 7.86377 1.986 7.69577 1.818C7.52777 1.65 7.44377 1.43533 7.44377 1.174C7.44377 0.912667 7.52777 0.698 7.69577 0.53C7.86377 0.352667 8.07843 0.264 8.33977 0.264C8.59177 0.264 8.80177 0.352667 8.96977 0.53C9.13777 0.698 9.22177 0.912667 9.22177 1.174C9.22177 1.43533 9.13777 1.65 8.96977 1.818C8.80177 1.986 8.59177 2.07 8.33977 2.07Z" fill="#1A1B1D"/>
</svg>
